<?xml version="1.0" encoding="UTF-8"?>
<svg version="1.1" viewBox="0 0 1000 852" width="251" height="213" xmlns="http://www.w3.org/2000/svg">
<path transform="translate(169,290)" d="m0 0 18 2 146 19 76 10 156 21 103 13 6 2-2 4-16 16-7 8-10 10-1 2 33 4 12 3 11 6 9 9 7 14 2 8v13l-4 13-6 10-9 8-12 6-8 2h-11l-31-4-1 11-6 32-7 25-8 20-9 17-8 10-9 10-14 11-18 10-11 5h-4l-7-13-10-11-11-7-16-5-6-1h-11l12 4 11 6 10 9 7 9 5 12 2 9v9l-3 13-5 10-11 12-11 7-14 4h-19l-13-3-12-6-9-8-7-11-4-10-2-13v-6l-46-7-35-7-10-3-3-21-7-14-10-11-13-8-12-5v2l4 2 9 7v2l3 1 7 11 4 11 2 14-2 13-6 12-8 10-12 9-10 4-5 1h-21l-13-4-10-5-11-10-6-10-5-12-1-5v-11l4-16 9-13 1-5-8-7-10-13-8-15-6-18-4-19-1-7-1-23 2-28 4-35 6-41 4-19 4-14-1-9-21-42zm470 124-4 42-1 17 14 2h15l9-3 8-6 4-5 3-7 1-11-2-9-5-8-8-6-8-3-17-3z" fill="#6C1028"/>
<path transform="translate(508,129)" d="m0 0h12l10 5 6 8 2 6v8l-3 8-5 7 2 4 13 10 7 6 7 8 10 12 10 14 9 15 8 19 5 15 5 21 3 24 1 25-4 1-25-15-29-16-26-15-21-12-26-15-28-16-27-15-22-13-56-32-23-13-14-8-8-6v-2l10-6 25-12 23-8 18-4 18-2h37l24 4 19 5 15 6 3-9 4-6 8-5zm21 60 6 9 13 17 11 17 10 18 12 25 9 24 6 15 3 3-3-20-6-23-8-20-10-19-10-14-8-10-12-13-9-8z" fill="#6D1028"/>
<path transform="translate(222,134)" d="m0 0 5 1 18 47 20 52 15 40 7 19v4l-10-1-34-5-3-3-15-40-12-31-8-21-15-39-2-9 9-4 16-6z" fill="#C6204B"/>
<path transform="translate(650,511)" d="m0 0 18 4 52 15 135 39 47 13 27 8 12 5 1 4-25-5-53-10-58-10-156-26-8-3 5-25z" fill="#C6214B"/>
<path transform="translate(637,568)" d="m0 0 9 2 37 13 26 10 29 10 29 11 56 20 30 11 15 6 1 2-10-1-67-17-82-20-80-19-8-3 2-5 8-12z" fill="#C6214C"/>
</svg>
